<svg xmlns="http://www.w3.org/2000/svg" width="1200" height="630" viewBox="0 0 1200 630" role="img" aria-labelledby="title desc">
  <title id="title">3D vision article cover</title>
  <desc id="desc">A clean technical placeholder cover for 3D vision and geometry articles.</desc>
  <defs>
    <linearGradient id="bg" x1="0" y1="0" x2="1" y2="1">
      <stop offset="0" stop-color="#f8fafc"/>
      <stop offset="0.55" stop-color="#eef2ff"/>
      <stop offset="1" stop-color="#e8f7f4"/>
    </linearGradient>
    <linearGradient id="line" x1="0" y1="0" x2="1" y2="1">
      <stop offset="0" stop-color="#2563eb"/>
      <stop offset="0.55" stop-color="#7c3aed"/>
      <stop offset="1" stop-color="#0f766e"/>
    </linearGradient>
    <pattern id="grid" width="48" height="48" patternUnits="userSpaceOnUse">
      <path d="M48 0H0V48" fill="none" stroke="#334155" stroke-opacity="0.08" stroke-width="1"/>
    </pattern>
  </defs>
  <rect width="1200" height="630" fill="url(#bg)"/>
  <rect width="1200" height="630" fill="url(#grid)"/>
  <g transform="translate(688 112)" fill="none" stroke="url(#line)" stroke-linejoin="round">
    <path d="M210 28 404 140v224L210 476 16 364V140Z" stroke-width="18"/>
    <path d="M210 28v224M16 140l194 112 194-112M16 364l194-112 194 112M210 252v224" stroke-width="12" stroke-opacity="0.72"/>
    <path d="M86 184v176l124 70 124-70V184L210 114Z" stroke-width="8" stroke-opacity="0.34"/>
    <path d="M70 402 0 478M340 396l84 76M210 28l-70-70M210 476l-78 76" stroke-width="10" stroke-linecap="round" stroke-opacity="0.45"/>
  </g>
  <g fill="#0f172a">
    <text x="92" y="185" font-family="Inter, Arial, sans-serif" font-size="34" font-weight="700">3D Vision</text>
    <text x="92" y="252" font-family="Inter, Arial, sans-serif" font-size="70" font-weight="800">Geometry Notes</text>
    <text x="96" y="314" font-family="Inter, Arial, sans-serif" font-size="28" fill="#475569">reconstruction · depth · gaussian splatting</text>
  </g>
  <rect x="92" y="374" width="286" height="8" rx="4" fill="url(#line)"/>
</svg>
